<svg version="1.1" id="Layer_1" xmlns="http://www.w3.org/2000/svg" xmlns:xlink="http://www.w3.org/1999/xlink" x="0px" y="0px"
	 width="100%" viewBox="0 0 551 453" enable-background="new 0 0 551 453" xml:space="preserve">
<path fill="#000000" opacity="1.000000" stroke="none" 
	d="
M327.000000,454.000000 
	C218.000031,454.000000 109.500053,454.000000 1.000058,454.000000 
	C1.000039,303.000061 1.000039,152.000122 1.000019,1.000139 
	C184.666565,1.000093 368.333130,1.000093 551.999756,1.000046 
	C551.999878,151.999863 551.999878,302.999725 551.999939,453.999786 
	C477.166656,454.000000 402.333344,454.000000 327.000000,454.000000 
M184.398438,417.845032 
	C184.727142,417.893188 185.055832,417.983490 185.384552,417.983582 
	C234.615402,417.997131 283.846252,418.009827 333.077057,417.970245 
	C334.046783,417.969452 335.015991,417.352356 336.489471,416.931000 
	C336.654907,416.888641 336.820312,416.846283 337.703491,416.901459 
	C342.257507,416.188751 346.996216,416.054352 351.335205,414.668427 
	C377.376556,406.350311 397.533447,381.156158 397.848267,352.648651 
	C397.892487,345.583588 398.009857,338.517792 397.936401,331.453949 
	C397.914276,329.328583 397.361145,327.208740 397.015747,324.138794 
	C397.011627,288.060822 397.007477,251.982864 397.848206,215.653076 
	C397.873627,193.495407 397.899078,171.337753 397.946686,148.220703 
	C397.665527,141.113724 397.384369,134.006760 397.866882,126.512474 
	C397.903442,111.314705 397.957550,96.116913 397.934448,80.919228 
	C397.933014,79.971848 397.326324,79.025375 397.014679,77.269409 
	C396.827698,71.945984 394.161377,68.043022 389.643921,64.418297 
	C385.923218,62.268509 382.202484,60.118725 377.448181,57.951519 
	C340.142090,57.968678 302.835999,57.974495 265.529907,58.006760 
	C238.052261,58.030525 210.574646,58.088844 182.364990,58.196037 
	C179.931686,59.133438 177.498398,60.070839 175.123291,60.985821 
	C170.529266,52.814034 170.463394,52.796215 161.800018,56.551746 
	C161.192184,56.815243 160.543442,56.984451 159.913513,57.196926 
	C156.676987,58.288597 155.484299,60.045212 156.888428,63.620087 
	C159.542679,70.377739 161.781158,77.298706 164.076065,85.065285 
	C164.066315,85.231384 164.048065,85.397484 164.048019,85.563583 
	C164.013687,189.410492 163.977661,293.257416 163.991104,397.104309 
	C163.991226,398.094574 164.649445,399.084747 164.957474,400.859192 
	C165.711517,403.131744 165.946747,405.798187 167.316910,407.602997 
	C171.423477,413.012299 177.230148,415.870758 183.965576,417.145325 
	C183.965576,417.145325 184.036636,417.053467 184.398438,417.845032 
z"/>
<path fill="#0E144E" opacity="1.000000" stroke="none" 
	d="
M378.481781,57.968937 
	C382.202484,60.118725 385.923218,62.268509 389.466553,64.758438 
	C389.056885,65.133804 388.824585,65.169037 388.261963,65.124634 
	C382.754242,61.512974 377.000031,60.836739 370.837708,60.848606 
	C310.546600,60.964695 250.255173,60.912506 189.963837,60.920715 
	C187.635223,60.921032 185.269577,60.807396 182.984650,61.159084 
	C174.560059,62.455765 173.568741,64.459007 177.168411,72.567162 
	C180.078613,72.373329 183.035202,72.176407 185.789276,72.226128 
	C185.008163,73.095680 184.429565,73.718597 183.747009,74.345947 
	C183.643021,74.350388 183.614914,74.144150 183.140320,74.092445 
	C179.404037,73.776962 175.594482,75.048889 173.710236,70.764038 
	C173.685394,70.673500 173.859283,70.602615 173.907806,70.178795 
	C173.350266,68.186035 172.744217,66.617104 172.028870,64.653122 
	C171.375656,61.886589 170.831772,59.515106 170.137253,56.486828 
	C166.231445,57.775948 162.714020,58.936882 158.764862,60.240314 
	C162.031815,69.947380 165.091949,79.175362 168.313126,88.346786 
	C168.563293,89.059059 169.942444,89.374809 171.187958,89.909630 
	C172.100433,90.005424 172.621841,90.066452 172.866577,90.371719 
	C167.659424,91.393509 166.782166,94.422676 166.838531,99.061295 
	C167.097610,120.380051 166.932526,141.703751 166.955002,163.025650 
	C166.993652,199.671143 167.058594,236.316620 167.075821,273.431854 
	C167.023865,314.493042 166.996689,355.084503 167.033081,395.675903 
	C167.034683,397.458832 167.457809,399.287537 167.957535,401.015991 
	C170.292816,409.093414 176.239319,413.103638 183.983978,415.357239 
	C183.932693,416.178741 183.892975,416.647888 183.853256,417.117065 
	C177.230148,415.870758 171.423477,413.012299 167.316910,407.602997 
	C165.946747,405.798187 165.711517,403.131744 165.021378,399.994537 
	C165.048782,395.967255 164.980377,392.804596 164.980392,389.641968 
	C164.980896,290.246582 164.993744,190.851181 164.960617,91.455795 
	C164.959808,89.021049 164.459656,86.586472 164.192398,84.151810 
	C161.781158,77.298706 159.542679,70.377739 156.888428,63.620087 
	C155.484299,60.045212 156.676987,58.288597 159.913513,57.196926 
	C160.543442,56.984451 161.192184,56.815243 161.800018,56.551746 
	C170.463394,52.796215 170.529266,52.814034 175.123291,60.985821 
	C177.498398,60.070839 179.931686,59.133438 183.043335,58.422455 
	C184.705841,58.756165 185.689972,58.957123 186.674149,58.957371 
	C249.030228,58.973083 311.386322,58.979847 373.742371,58.931274 
	C375.322418,58.930046 376.901978,58.303726 378.481781,57.968937 
z"/>
<path fill="#0E154B" opacity="1.000000" stroke="none" 
	d="
M388.592285,65.204269 
	C388.824585,65.169037 389.056885,65.133804 389.638306,65.051208 
	C394.161377,68.043022 396.827698,71.945984 397.007935,78.137054 
	C397.035187,94.969727 397.069214,110.934761 397.103210,126.899788 
	C397.384369,134.006760 397.665527,141.113724 397.558777,148.889572 
	C397.115051,171.673920 397.059204,193.789413 397.003357,215.904892 
	C397.007477,251.982864 397.011627,288.060822 397.017700,325.076447 
	C397.015625,334.978729 397.011658,343.943329 397.007660,352.907959 
	C397.533447,381.156158 377.376556,406.350311 351.335205,414.668427 
	C346.996216,416.054352 342.257507,416.188751 337.348511,416.548035 
	C336.995758,415.785309 336.997955,415.375946 337.316803,414.746948 
	C351.791290,412.538300 364.375031,407.400360 374.868439,397.258240 
	C388.039001,384.528534 394.337280,369.064301 394.820557,350.504883 
	C394.825195,324.339844 394.771667,298.637054 394.776306,272.473999 
	C394.773071,261.670288 394.711731,251.326828 394.720459,240.524582 
	C394.838745,230.451065 394.924744,220.836334 394.928650,211.221588 
	C394.945435,169.835175 394.843506,128.448349 395.021027,87.062706 
	C395.055664,78.985367 393.999939,71.534378 388.592285,65.204269 
z"/>
<path fill="#636281" opacity="1.000000" stroke="none" 
	d="
M164.134232,84.608551 
	C164.459656,86.586472 164.959808,89.021049 164.960617,91.455795 
	C164.993744,190.851181 164.980896,290.246582 164.980392,389.641968 
	C164.980377,392.804596 165.048782,395.967255 165.042847,399.602417 
	C164.649445,399.084747 163.991226,398.094574 163.991104,397.104309 
	C163.977661,293.257416 164.013687,189.410492 164.048019,85.563583 
	C164.048065,85.397484 164.066315,85.231384 164.134232,84.608551 
z"/>
<path fill="#423F64" opacity="1.000000" stroke="none" 
	d="
M377.964966,57.960228 
	C376.901978,58.303726 375.322418,58.930046 373.742371,58.931274 
	C311.386322,58.979847 249.030228,58.973083 186.674149,58.957371 
	C185.689972,58.957123 184.705841,58.756165 183.409363,58.390320 
	C210.574646,58.088844 238.052261,58.030525 265.529907,58.006760 
	C302.835999,57.974495 340.142090,57.968678 377.964966,57.960228 
z"/>
<path fill="#110F52" opacity="1.000000" stroke="none" 
	d="
M337.000183,414.966614 
	C336.997955,415.375946 336.995758,415.785309 336.989655,416.499268 
	C336.820312,416.846283 336.654907,416.888641 335.982849,416.926453 
	C335.307556,416.883820 335.138855,416.845734 334.621643,416.593079 
	C333.289062,416.253113 332.304993,416.018524 331.320892,416.018127 
	C285.992188,415.999390 240.663498,415.993225 195.334839,416.036316 
	C193.897736,416.037689 192.461121,416.570129 190.591904,416.921844 
	C188.118561,417.010315 186.077606,417.031891 184.036636,417.053467 
	C184.036636,417.053467 183.965576,417.145325 183.909424,417.131195 
	C183.892975,416.647888 183.932693,416.178741 184.452942,415.341736 
	C235.622360,414.971436 286.311279,414.969025 337.000183,414.966614 
z"/>
<path fill="#AFACC1" opacity="1.000000" stroke="none" 
	d="
M334.970154,416.807678 
	C335.138855,416.845734 335.307556,416.883820 335.730835,416.972351 
	C335.015991,417.352356 334.046783,417.969452 333.077057,417.970245 
	C283.846252,418.009827 234.615402,417.997131 185.384552,417.983582 
	C185.055832,417.983490 184.727142,417.893188 184.217529,417.449249 
	C186.077606,417.031891 188.118561,417.010315 191.054840,416.988586 
	C227.002396,416.998138 262.054657,417.026917 297.106903,417.007507 
	C309.728027,417.000488 322.349060,416.877655 334.970154,416.807678 
z"/>
<path fill="#E5EDFE" opacity="1.000000" stroke="none" 
	d="
M397.425781,215.778992 
	C397.059204,193.789413 397.115051,171.673920 397.547729,149.369263 
	C397.899078,171.337753 397.873627,193.495407 397.425781,215.778992 
z"/>
<path fill="#E5EDFE" opacity="1.000000" stroke="none" 
	d="
M397.485046,126.706131 
	C397.069214,110.934761 397.035187,94.969727 397.001190,78.541595 
	C397.326324,79.025375 397.933014,79.971848 397.934448,80.919228 
	C397.957550,96.116913 397.903442,111.314705 397.485046,126.706131 
z"/>
<path fill="#E5EDFE" opacity="1.000000" stroke="none" 
	d="
M397.427979,352.778320 
	C397.011658,343.943329 397.015625,334.978729 397.035461,325.550232 
	C397.361145,327.208740 397.914276,329.328583 397.936401,331.453949 
	C398.009857,338.517792 397.892487,345.583588 397.427979,352.778320 
z"/>
<path fill="#1C4287" opacity="1.000000" stroke="none" 
	d="
M337.316833,414.746948 
	C286.311279,414.969025 235.622360,414.971436 184.464493,414.989380 
	C176.239319,413.103638 170.292816,409.093414 167.957535,401.015991 
	C167.457809,399.287537 167.034683,397.458832 167.033081,395.675903 
	C166.996689,355.084503 167.023865,314.493042 167.443451,273.445374 
	C170.439194,273.973022 173.030640,274.956909 175.754990,276.237518 
	C176.238464,277.064667 176.589020,277.595062 177.109131,278.327820 
	C177.590103,278.688751 177.901520,278.847351 178.316559,279.241089 
	C178.869797,279.697968 179.319412,279.919708 179.951477,280.338470 
	C180.431686,280.733124 180.729431,280.930817 181.082123,281.462097 
	C188.087799,290.258636 194.747757,298.939301 198.173279,309.521973 
	C199.835617,314.657532 200.902344,319.985870 201.950409,325.440857 
	C195.585083,330.227905 196.410019,339.320862 202.939606,343.117920 
	C201.261246,353.550446 203.264404,363.251038 206.351440,372.787506 
	C206.540100,373.370361 207.956375,373.555817 208.862335,374.307800 
	C209.532867,376.174011 209.825592,377.921814 210.804108,379.100067 
	C216.797485,386.316986 216.874863,386.298248 210.368729,393.183716 
	C208.386856,395.281128 206.584137,397.935333 209.246246,399.902496 
	C210.626831,400.922699 214.232330,400.117126 216.128937,398.971375 
	C218.858856,397.322266 220.947556,394.611725 223.545242,392.129272 
	C226.058716,394.673431 228.451523,396.742981 230.407608,399.165192 
	C232.813126,402.143951 235.179855,402.379700 238.153122,400.232239 
	C244.033157,403.047516 249.576401,406.061371 255.476639,407.974030 
	C268.167236,412.087799 281.401642,411.411591 294.459564,410.832153 
	C305.165771,410.357056 315.466766,407.404236 324.129303,400.785614 
	C329.142059,396.955536 333.431641,392.178925 338.346436,387.970703 
	C339.150574,389.050385 339.654938,389.987610 339.968628,391.122467 
	C340.531158,392.199005 341.284363,393.077911 342.107025,394.277405 
	C346.202301,396.249512 348.013519,393.316376 350.291809,390.856934 
	C350.726593,390.858185 350.898163,390.807526 351.444092,390.737305 
	C353.437592,390.398010 355.455292,390.566162 356.582916,389.644897 
	C358.296143,388.245117 360.936829,385.411713 360.481079,384.372711 
	C358.556854,379.985962 355.631989,376.038086 353.037659,371.641968 
	C352.681580,370.895264 352.360870,370.436310 352.039062,369.632721 
	C351.680389,368.214905 351.322815,367.141724 351.125732,365.699036 
	C351.871307,357.520172 352.456360,349.710876 353.423584,341.899353 
	C354.820282,341.898376 355.834869,341.899628 357.253326,341.926514 
	C366.131561,343.735718 365.717957,341.689240 365.859833,335.282196 
	C373.298004,342.257751 381.336090,341.106934 390.544769,337.041077 
	C391.572845,340.796875 392.509338,344.331268 393.520477,347.844116 
	C393.828888,348.915497 394.342651,349.927795 394.762360,350.967133 
	C394.337280,369.064301 388.039001,384.528534 374.868439,397.258240 
	C364.375031,407.400360 351.791290,412.538300 337.316833,414.746948 
z"/>
<path fill="#2C4F9A" opacity="1.000000" stroke="none" 
	d="
M388.261963,65.124634 
	C393.999939,71.534378 395.055664,78.985367 395.021027,87.062706 
	C394.843506,128.448349 394.945435,169.835175 394.928650,211.221588 
	C394.924744,220.836334 394.838745,230.451065 394.345093,240.523743 
	C392.606140,239.698883 390.578827,238.606064 390.186310,237.089981 
	C389.554474,234.649368 390.341187,231.865555 389.868408,229.350861 
	C389.573303,227.781021 388.065491,226.439163 387.056152,224.528534 
	C386.995087,176.902145 386.928131,129.742111 387.051300,82.582565 
	C387.062531,78.285172 386.005432,76.838936 381.493835,76.871513 
	C353.999115,77.070099 326.502167,76.980690 299.005981,76.961548 
	C264.678680,76.937653 230.351395,76.888824 196.032928,76.470947 
	C196.072723,75.073502 196.103714,74.055855 196.326523,72.760017 
	C195.725601,71.662888 194.958740,70.193626 194.134750,70.160866 
	C192.436813,70.093353 190.708374,70.792870 188.697784,71.168808 
	C187.880051,71.408699 187.357040,71.656578 186.621643,71.902924 
	C186.409286,71.901390 185.991791,71.979492 185.991791,71.979492 
	C183.035202,72.176407 180.078613,72.373329 177.168411,72.567162 
	C173.568741,64.459007 174.560059,62.455765 182.984650,61.159084 
	C185.269577,60.807396 187.635223,60.921032 189.963837,60.920715 
	C250.255173,60.912506 310.546600,60.964695 370.837708,60.848606 
	C377.000031,60.836739 382.754242,61.512974 388.261963,65.124634 
M302.647369,67.231606 
	C291.876770,67.119476 281.105530,66.922928 270.336304,66.999916 
	C268.959595,67.009758 267.593109,68.444778 266.221863,69.219551 
	C267.574097,69.855827 268.917969,71.022240 270.279877,71.043633 
	C280.232666,71.199989 290.189362,71.159142 300.143921,71.075058 
	C301.139404,71.066643 302.128967,70.354927 303.632202,69.748154 
	C303.440399,69.170303 303.248596,68.592461 302.647369,67.231606 
z"/>
<path fill="#2C4F9A" opacity="1.000000" stroke="none" 
	d="
M175.622070,275.940765 
	C173.030640,274.956909 170.439194,273.973022 167.480133,272.975647 
	C167.058594,236.316620 166.993652,199.671143 166.955002,163.025650 
	C166.932526,141.703751 167.097610,120.380051 166.838531,99.061295 
	C166.782166,94.422676 167.659424,91.393509 172.843307,90.336464 
	C173.096710,90.056976 173.020859,90.090012 173.388809,90.117432 
	C174.493607,90.124565 175.230469,90.104286 175.978729,90.052231 
	C175.990143,90.020447 175.922913,90.026817 175.877686,90.493385 
	C175.823227,150.790695 175.815643,210.621429 175.797211,270.452179 
	C175.796646,272.281738 175.682999,274.111237 175.622070,275.940765 
z"/>
<path fill="#ECC222" opacity="1.000000" stroke="none" 
	d="
M173.859283,70.602615 
	C173.859283,70.602615 173.685394,70.673500 173.683716,71.195732 
	C174.013809,73.978058 173.866699,76.711693 177.535385,75.786446 
	C179.570511,75.273186 181.588959,74.693756 183.614914,74.144150 
	C183.614914,74.144150 183.643021,74.350388 184.184326,74.384773 
	C187.460022,73.854073 190.194427,73.288986 193.209183,72.817238 
	C193.675797,72.974258 193.862061,73.037956 194.004120,73.502121 
	C192.304977,83.925148 190.650055,93.947716 188.591095,104.102188 
	C187.472702,102.777496 186.339630,101.380585 186.121994,99.853226 
	C185.452576,95.155205 185.133423,90.407288 184.599045,84.857307 
	C181.121109,85.970200 178.231506,86.894829 175.006470,87.801315 
	C173.379654,88.480400 172.088257,89.177628 170.796875,89.874855 
	C169.942444,89.374809 168.563293,89.059059 168.313126,88.346786 
	C165.091949,79.175362 162.031815,69.947380 158.764862,60.240314 
	C162.714020,58.936882 166.231445,57.775948 170.137253,56.486828 
	C170.831772,59.515106 171.375656,61.886589 172.008072,65.018784 
	C172.684143,67.387199 173.271713,68.994911 173.859283,70.602615 
z"/>
<path fill="#2A0F53" opacity="1.000000" stroke="none" 
	d="
M171.187958,89.909630 
	C172.088257,89.177628 173.379654,88.480400 175.459045,87.850952 
	C183.429993,86.893875 183.332291,86.903481 184.060074,94.305244 
	C184.511703,98.898544 185.314056,103.457367 185.953323,108.462845 
	C185.720139,111.606819 185.492630,114.319595 185.155548,116.617004 
	C184.434067,110.139442 183.822113,104.077240 183.283615,97.588554 
	C183.174530,95.452347 182.991989,93.742622 182.843658,91.739998 
	C182.777588,90.869896 182.677338,90.292709 182.489471,89.372704 
	C176.217606,87.403236 178.409286,92.297890 177.575958,94.994354 
	C177.386475,95.003838 177.008316,95.035133 177.001205,94.649063 
	C176.637024,92.850929 176.279968,91.438873 175.922913,90.026817 
	C175.922913,90.026817 175.990143,90.020447 175.786377,89.818604 
	C174.728699,89.774513 173.874786,89.932259 173.020859,90.090012 
	C173.020859,90.090012 173.096710,90.056976 173.119980,90.092224 
	C172.621841,90.066452 172.100433,90.005424 171.187958,89.909630 
z"/>
<path fill="#230A3B" opacity="1.000000" stroke="none" 
	d="
M183.140320,74.092445 
	C181.588959,74.693756 179.570511,75.273186 177.535385,75.786446 
	C173.866699,76.711693 174.013809,73.978058 173.708557,71.286270 
	C175.594482,75.048889 179.404037,73.776962 183.140320,74.092445 
z"/>
<path fill="#230A3B" opacity="1.000000" stroke="none" 
	d="
M192.928818,72.723907 
	C190.194427,73.288986 187.460022,73.854073 184.288300,74.380333 
	C184.429565,73.718597 185.008163,73.095680 185.789276,72.226135 
	C185.991791,71.979492 186.409286,71.901390 186.984802,71.932617 
	C188.043503,71.955208 188.526703,71.946579 189.355042,71.941605 
	C190.776413,72.204803 191.852615,72.464355 192.928818,72.723907 
z"/>
<path fill="#230A3B" opacity="1.000000" stroke="none" 
	d="
M173.907806,70.178795 
	C173.271713,68.994911 172.684143,67.387199 172.117371,65.413834 
	C172.744217,66.617104 173.350266,68.186035 173.907806,70.178795 
z"/>
<path fill="#274583" opacity="1.000000" stroke="none" 
	d="
M394.820557,350.504883 
	C394.342651,349.927795 393.828888,348.915497 393.520477,347.844116 
	C392.509338,344.331268 391.572845,340.796875 390.544769,337.041077 
	C381.336090,341.106934 373.298004,342.257751 365.859833,335.282196 
	C365.717957,341.689240 366.131561,343.735718 357.508545,341.691162 
	C361.545319,339.700378 363.381287,336.616608 363.095581,332.064667 
	C362.801453,327.378906 360.092102,324.957367 355.940216,323.295898 
	C356.300568,311.661346 362.572998,302.993164 368.391876,294.129883 
	C371.251434,289.774231 374.118347,285.423340 377.208923,280.932373 
	C377.713409,280.574249 377.990997,280.354034 378.642090,280.156494 
	C380.364441,279.758789 381.713287,279.338379 383.269409,278.719788 
	C383.866913,277.712891 384.257141,276.904236 384.801483,276.361694 
	C385.633484,275.752747 386.311371,274.877686 387.395020,274.000244 
	C390.106567,273.643372 392.412354,273.288849 394.718140,272.934296 
	C394.771667,298.637054 394.825195,324.339844 394.820557,350.504883 
z"/>
<path fill="#2A5096" opacity="1.000000" stroke="none" 
	d="
M394.776306,272.473999 
	C392.412354,273.288849 390.106567,273.643372 387.376892,273.531616 
	C387.002625,257.041931 387.052246,241.018463 387.101868,224.995010 
	C388.065491,226.439163 389.573303,227.781021 389.868408,229.350861 
	C390.341187,231.865555 389.554474,234.649368 390.186310,237.089981 
	C390.578827,238.606064 392.606140,239.698883 394.275024,240.982529 
	C394.711731,251.326828 394.773071,261.670288 394.776306,272.473999 
z"/>
<path fill="#0E154B" opacity="1.000000" stroke="none" 
	d="
M334.621643,416.593079 
	C322.349060,416.877655 309.728027,417.000488 297.106903,417.007507 
	C262.054657,417.026917 227.002396,416.998138 191.487213,416.921692 
	C192.461121,416.570129 193.897736,416.037689 195.334839,416.036316 
	C240.663498,415.993225 285.992188,415.999390 331.320892,416.018127 
	C332.304993,416.018524 333.289062,416.253113 334.621643,416.593079 
z"/>
<path fill="#2A4F9A" opacity="1.000000" stroke="none" 
	d="
M208.801483,373.926178 
	C207.956375,373.555817 206.540100,373.370361 206.351440,372.787506 
	C203.264404,363.251038 201.261246,353.550446 203.331696,343.107849 
	C205.600510,342.802826 207.199585,342.829193 209.237030,342.904266 
	C210.845459,342.909821 212.015533,342.866699 213.454712,343.152191 
	C213.851624,346.295044 213.928223,349.112762 214.118301,351.922791 
	C214.476151,357.212616 216.809906,358.941010 223.441666,358.925568 
	C229.120178,358.912354 231.417007,356.998047 231.785431,351.971497 
	C232.406677,343.495148 232.406662,343.495148 240.728928,342.727539 
	C246.319672,342.211853 248.100250,339.817017 247.928940,333.043671 
	C247.786972,327.430908 245.939651,325.471863 240.526794,325.193817 
	C232.278976,324.770142 232.278931,324.770172 231.757584,316.294159 
	C231.747360,316.127930 231.750641,315.960724 231.736038,315.794983 
	C231.259048,310.383026 229.256699,308.930267 222.368027,308.996613 
	C216.479248,309.053314 214.513443,310.705017 214.135345,315.913727 
	C213.470551,325.071686 213.470535,325.070984 204.236862,325.174622 
	C203.570694,325.182098 202.904755,325.209045 202.238708,325.226929 
	C200.902344,319.985870 199.835617,314.657532 198.173279,309.521973 
	C194.747757,298.939301 188.087799,290.258636 181.547653,281.425598 
	C196.930466,281.084534 211.902679,281.113556 226.638306,281.343201 
	C225.453506,281.962585 224.505295,282.381348 223.501801,282.824524 
	C223.832077,283.338867 223.885895,283.533173 224.006256,283.592499 
	C224.895859,284.030823 225.792084,284.457184 226.698410,284.859863 
	C240.234924,290.874146 250.637955,299.934265 256.143707,314.135498 
	C258.093445,319.164581 260.316010,324.336456 263.563965,328.558533 
	C269.189575,335.871368 276.654480,340.018829 286.502716,338.385620 
	C298.973541,336.317505 304.728760,327.280212 308.922607,316.875000 
	C311.523438,310.422119 313.283875,303.637726 319.408264,298.981781 
	C328.919067,295.407013 331.969788,301.441589 334.615967,308.829346 
	C333.469147,309.718323 332.200134,310.968506 330.702393,311.813049 
	C326.220184,314.340515 323.523468,317.981232 322.809937,323.395447 
	C317.259155,327.773315 316.210541,331.208282 318.737152,336.197754 
	C321.018494,340.702820 324.879181,341.884460 331.215820,340.096069 
	C332.069855,340.909973 332.640015,341.557983 333.141663,342.580933 
	C331.245636,347.742249 331.977661,352.386383 336.585938,354.506805 
	C339.386810,355.795593 343.854614,355.621643 346.658936,354.243561 
	C351.013672,352.103394 351.524872,347.555206 350.187683,342.950104 
	C351.031799,342.487793 351.543091,342.081635 352.304016,341.719421 
	C352.716278,341.809448 352.878876,341.855530 353.041443,341.901581 
	C352.456360,349.710876 351.871307,357.520172 350.904724,365.820923 
	C350.353058,366.598297 350.182953,366.884216 349.811768,367.162170 
	C349.610687,367.154144 349.210602,367.135468 348.859344,367.100098 
	C347.380188,367.778259 346.252289,368.491791 345.098022,369.145142 
	C345.071625,369.084991 345.189972,369.142120 344.834167,369.133575 
	C343.395721,369.881348 342.313110,370.637665 341.244324,371.540619 
	C341.258148,371.687225 341.132080,371.951965 340.775269,371.987732 
	C339.882263,372.476532 339.346039,372.929535 338.554474,373.344727 
	C337.954620,373.295227 337.610168,373.283539 336.936768,373.349487 
	C336.028717,374.091278 335.449615,374.755493 334.602814,375.438354 
	C334.625305,377.210632 334.721710,379.025452 335.251831,380.703217 
	C336.018738,383.130310 337.099701,385.458130 338.046692,387.828308 
	C333.431641,392.178925 329.142059,396.955536 324.129303,400.785614 
	C315.466766,407.404236 305.165771,410.357056 294.459564,410.832153 
	C281.401642,411.411591 268.167236,412.087799 255.476639,407.974030 
	C249.576401,406.061371 244.033157,403.047516 238.179352,399.842224 
	C237.300644,397.227020 237.030777,394.901642 235.762573,393.446014 
	C229.647888,386.427551 229.552414,386.510620 235.835968,379.709930 
	C235.948730,379.587860 236.158066,379.484192 236.173904,379.353943 
	C236.440704,377.157837 236.683884,374.958832 236.932312,372.760498 
	C234.853760,373.104919 232.212921,372.756592 230.791321,373.910461 
	C223.586700,379.757996 223.708527,379.882874 216.889496,373.629211 
	C214.126617,371.095367 211.342575,369.636719 208.801483,373.926178 
M249.245758,388.086060 
	C253.594482,394.787598 260.624573,396.269073 267.734558,397.387054 
	C283.995605,399.943970 300.196777,400.800812 315.499451,393.175568 
	C317.782135,392.038055 320.781097,388.955658 320.585083,387.070801 
	C320.332611,384.642670 317.609283,381.333435 315.214386,380.488007 
	C309.023254,378.302551 302.491486,376.849121 295.981201,375.848877 
	C282.276215,373.743286 268.729492,375.059235 255.829239,380.138092 
	C253.068710,381.224884 251.322083,384.886993 249.245758,388.086060 
z"/>
<path fill="#26212F" opacity="1.000000" stroke="none" 
	d="
M208.798676,342.855530 
	C207.199585,342.829193 205.600510,342.802826 203.609344,342.786530 
	C196.410019,339.320862 195.585083,330.227905 201.950409,325.440857 
	C202.904755,325.209045 203.570694,325.182098 204.236862,325.174622 
	C213.470535,325.070984 213.470551,325.071686 214.135345,315.913727 
	C214.513443,310.705017 216.479248,309.053314 222.368027,308.996613 
	C229.256699,308.930267 231.259048,310.383026 231.736038,315.794983 
	C231.750641,315.960724 231.747360,316.127930 231.757584,316.294159 
	C232.278931,324.770172 232.278976,324.770142 240.526794,325.193817 
	C245.939651,325.471863 247.786972,327.430908 247.928940,333.043671 
	C248.100250,339.817017 246.319672,342.211853 240.728928,342.727539 
	C232.406662,343.495148 232.406677,343.495148 231.785431,351.971497 
	C231.417007,356.998047 229.120178,358.912354 223.441666,358.925568 
	C216.809906,358.941010 214.476151,357.212616 214.118301,351.922791 
	C213.928223,349.112762 213.851624,346.295044 213.177643,342.960205 
	C211.353867,342.578247 210.076263,342.716888 208.798676,342.855530 
M214.111832,327.282562 
	C211.639954,327.274292 209.167664,327.233002 206.696289,327.264374 
	C200.800659,327.339172 199.024841,328.989899 199.066391,334.289948 
	C199.103653,339.041809 201.161713,340.858032 206.607620,340.854248 
	C209.076141,340.852570 211.544586,340.743530 214.882156,340.902527 
	C215.373428,344.322418 216.194870,347.734650 216.274338,351.164093 
	C216.379089,355.684937 218.776443,356.746918 222.703033,356.774902 
	C226.615250,356.802795 229.178375,355.805481 229.208160,351.282013 
	C229.230881,347.828552 228.312744,342.911652 230.144836,341.305634 
	C232.309891,339.407715 236.983276,340.143524 240.568741,340.148285 
	C245.632202,340.154999 245.431030,336.746552 245.519104,333.305328 
	C245.612854,329.641266 244.651123,327.073212 240.267258,327.234924 
	C236.812134,327.362335 233.348541,327.260498 229.214981,327.260498 
	C229.214981,323.592743 229.043488,320.470795 229.254761,317.374939 
	C229.580170,312.606537 227.557831,310.921600 222.805435,310.961426 
	C218.082535,311.001099 216.210129,312.708649 216.274643,317.450806 
	C216.319962,320.782532 215.467987,324.126526 214.111832,327.282562 
z"/>
<path fill="#2A0F53" opacity="1.000000" stroke="none" 
	d="
M208.862335,374.307800 
	C211.342575,369.636719 214.126617,371.095367 216.889496,373.629211 
	C223.708527,379.882874 223.586700,379.757996 230.791321,373.910461 
	C232.212921,372.756592 234.853760,373.104919 236.932312,372.760498 
	C236.683884,374.958832 236.440704,377.157837 236.173904,379.353943 
	C236.158066,379.484192 235.948730,379.587860 235.835968,379.709930 
	C229.552414,386.510620 229.647888,386.427551 235.762573,393.446014 
	C237.030777,394.901642 237.300644,397.227020 238.004395,399.541595 
	C235.179855,402.379700 232.813126,402.143951 230.407608,399.165192 
	C228.451523,396.742981 226.058716,394.673431 223.545242,392.129272 
	C220.947556,394.611725 218.858856,397.322266 216.128937,398.971375 
	C214.232330,400.117126 210.626831,400.922699 209.246246,399.902496 
	C206.584137,397.935333 208.386856,395.281128 210.368729,393.183716 
	C216.874863,386.298248 216.797485,386.316986 210.804108,379.100067 
	C209.825592,377.921814 209.532867,376.174011 208.862335,374.307800 
M234.486267,398.855347 
	C234.366592,397.468292 234.759949,395.663269 234.033005,394.770996 
	C231.663086,391.862091 228.884171,389.286377 226.316116,386.637665 
	C229.194305,383.100983 231.704590,380.016388 234.214890,376.931763 
	C233.784561,376.557556 233.354218,376.183350 232.923889,375.809143 
	C229.636139,378.445465 226.348404,381.081787 222.676559,384.026123 
	C220.932358,381.967865 219.389130,379.826965 217.514313,378.032562 
	C215.928894,376.515106 213.959412,375.398926 212.159882,374.105194 
	C211.761139,374.626099 211.362381,375.147003 210.963638,375.667908 
	C214.230469,379.262360 217.497314,382.856812 220.808746,386.500336 
	C218.617126,388.540527 216.613052,390.281769 214.757935,392.169403 
	C213.038757,393.918793 211.478882,395.824707 209.848862,397.661682 
	C210.408401,398.266449 210.967957,398.871185 211.527512,399.475922 
	C215.468735,396.085999 219.409973,392.696075 223.455978,389.216034 
	C226.998383,392.498627 230.390930,395.642334 234.486267,398.855347 
z"/>
<path fill="#230A3B" opacity="1.000000" stroke="none" 
	d="
M383.062134,278.917969 
	C381.713287,279.338379 380.364441,279.758789 378.147461,280.109741 
	C370.453339,280.019806 363.625427,279.893402 356.802063,280.017517 
	C352.530914,280.095245 348.266632,280.550079 344.006866,280.903931 
	C344.014465,280.972107 344.043427,281.106201 343.597076,281.044556 
	C340.756836,280.932831 338.362946,280.882782 335.685913,280.627533 
	C333.611420,280.563232 331.820038,280.704102 329.657227,280.868286 
	C328.544037,280.867218 327.802368,280.842834 326.705994,280.600098 
	C321.380066,280.249603 316.408783,280.001129 311.437592,280.003479 
	C267.548065,280.024170 223.658554,280.089386 179.769028,280.141479 
	C179.319412,279.919708 178.869797,279.697968 178.328064,279.196411 
	C178.235977,278.916595 178.164307,278.855591 178.530701,278.863739 
	C179.624268,278.798523 180.351440,278.725159 181.537537,278.719879 
	C206.971146,278.738129 231.945801,278.688354 257.383270,278.741058 
	C262.589874,278.776215 267.333679,278.708893 272.535645,278.710388 
	C278.635681,278.732330 284.277618,278.685486 290.383057,278.740906 
	C295.924957,278.774170 301.003296,278.705139 306.539978,278.704803 
	C312.999237,278.688568 319.000153,278.603577 325.460327,278.613403 
	C344.268982,278.663055 362.618408,278.617889 381.311401,278.660919 
	C382.123993,278.805359 382.593079,278.861664 383.062134,278.917969 
z"/>
<path fill="#110F52" opacity="1.000000" stroke="none" 
	d="
M175.877686,90.493385 
	C176.279968,91.438873 176.637024,92.850929 176.997498,95.113739 
	C176.980453,156.684814 176.960007,217.405136 176.939575,278.125458 
	C176.589020,277.595062 176.238464,277.064667 175.755005,276.237518 
	C175.682999,274.111237 175.796646,272.281738 175.797211,270.452179 
	C175.815643,210.621429 175.823227,150.790695 175.877686,90.493385 
z"/>
<path fill="#392163" opacity="1.000000" stroke="none" 
	d="
M345.124390,369.205322 
	C346.252289,368.491791 347.380188,367.778259 348.816071,367.445435 
	C350.096161,369.227631 351.068237,370.629120 352.025421,372.014099 
	C352.010498,371.997559 351.982819,371.962708 351.698578,372.263916 
	C351.976868,373.735626 352.539398,374.906097 353.101929,376.076599 
	C353.396820,375.934540 353.691742,375.792511 353.986633,375.650452 
	C353.626221,374.463745 353.265778,373.277008 352.947266,372.050171 
	C352.989197,372.010010 353.073059,371.929718 353.073059,371.929718 
	C355.631989,376.038086 358.556854,379.985962 360.481079,384.372711 
	C360.936829,385.411713 358.296143,388.245117 356.582916,389.644897 
	C355.455292,390.566162 353.437592,390.398010 351.420471,390.372681 
	C347.758453,383.816467 344.494476,377.605225 341.230499,371.394012 
	C342.313110,370.637665 343.395721,369.881348 344.797150,369.478699 
	C346.563965,372.711426 348.011963,375.590515 349.597534,378.770142 
	C350.121796,379.276154 350.508423,379.481628 350.895081,379.687103 
	C350.701233,379.029846 350.507385,378.372559 350.229248,377.366699 
	C348.471405,374.413849 346.797882,371.809570 345.124390,369.205322 
M355.007477,379.938660 
	C355.227173,379.475433 355.446899,379.012207 355.402924,377.904144 
	C354.982117,377.689056 354.561279,377.473999 354.140442,377.258942 
	C354.321167,377.944214 354.501862,378.629486 355.007477,379.938660 
M353.695801,387.079346 
	C354.008179,387.286682 354.320557,387.494049 354.632935,387.701416 
	C354.497070,387.067169 354.361176,386.432953 354.093323,385.086731 
	C353.356171,383.631927 352.619049,382.177124 351.881897,380.722321 
	C351.509979,380.900208 351.138062,381.078125 350.766144,381.256012 
	C351.648682,383.029694 352.531189,384.803406 353.695801,387.079346 
M357.023102,383.743561 
	C357.333740,384.492249 357.644409,385.240906 357.955048,385.989594 
	C358.266846,385.827911 358.578644,385.666229 358.890472,385.504547 
	C358.374298,384.699127 357.858154,383.893707 357.023102,383.743561 
M356.473083,381.940552 
	C356.546600,381.721802 356.620148,381.503021 356.693665,381.284271 
	C356.483429,381.353882 356.273163,381.423492 356.473083,381.940552 
z"/>
<path fill="#392163" opacity="1.000000" stroke="none" 
	d="
M177.109131,278.327820 
	C176.960007,217.405136 176.980453,156.684814 177.004608,95.499817 
	C177.008316,95.035133 177.386475,95.003838 177.646545,95.458549 
	C177.918671,153.065491 177.926514,210.217728 177.952179,267.369965 
	C177.953903,271.198547 178.090469,275.027039 178.164307,278.855591 
	C178.164307,278.855591 178.235977,278.916595 178.224457,278.961273 
	C177.901520,278.847351 177.590103,278.688751 177.109131,278.327820 
z"/>
<path fill="#0E144E" opacity="1.000000" stroke="none" 
	d="
M179.951477,280.338470 
	C223.658554,280.089386 267.548065,280.024170 311.437592,280.003479 
	C316.408783,280.001129 321.380066,280.249603 326.234009,280.661926 
	C323.789703,280.964386 321.462738,281.002808 319.135712,281.006470 
	C288.382111,281.054657 257.628510,281.097992 226.874908,281.142548 
	C211.902679,281.113556 196.930466,281.084534 181.492706,281.091980 
	C180.729431,280.930817 180.431686,280.733124 179.951477,280.338470 
z"/>
<path fill="#392163" opacity="1.000000" stroke="none" 
	d="
M338.809845,373.382568 
	C339.346039,372.929535 339.882263,372.476532 340.901642,372.312500 
	C344.266083,378.669373 347.147308,384.737244 350.028534,390.805084 
	C348.013519,393.316376 346.202301,396.249512 342.136627,394.249542 
	C342.096802,393.901123 342.155182,393.843353 342.443054,393.875366 
	C342.483917,392.925323 342.236877,391.943298 342.000977,390.975464 
	C342.012115,390.989655 342.045837,391.002258 342.069275,390.634949 
	C339.685333,385.318329 337.277924,380.368988 334.870544,375.419678 
	C335.449615,374.755493 336.028717,374.091278 336.976471,373.677429 
	C340.285522,379.967468 343.225922,386.007172 346.166321,392.046875 
	C346.589020,391.831726 347.011719,391.616577 347.434418,391.401398 
	C344.559570,385.395142 341.684723,379.388855 338.809845,373.382568 
z"/>
<path fill="#2A0F53" opacity="1.000000" stroke="none" 
	d="
M353.423584,341.899353 
	C352.878876,341.855530 352.716278,341.809448 352.039307,341.537598 
	C350.681580,341.206360 349.838196,341.100861 348.997437,340.997681 
	C349.000000,341.000000 349.005646,341.005981 348.926819,340.759644 
	C348.561035,340.338165 348.274048,340.162994 347.992615,339.993225 
	C347.998108,339.998627 348.008972,340.010132 347.974121,339.627319 
	C344.998077,334.807098 345.282349,330.389587 348.011414,325.994293 
	C348.001770,326.001404 347.987183,326.020447 348.303406,325.885132 
	C350.098724,325.094604 351.577789,324.439423 353.415375,323.803925 
	C354.488556,323.781860 355.203186,323.740173 355.917847,323.698456 
	C360.092102,324.957367 362.801453,327.378906 363.095581,332.064667 
	C363.381287,336.616608 361.545319,339.700378 357.104675,341.665527 
	C355.834869,341.899628 354.820282,341.898376 353.423584,341.899353 
M355.328278,339.350739 
	C359.577728,338.391724 362.010590,335.598785 360.831177,331.472015 
	C360.213867,329.311981 357.667938,326.823242 355.492188,326.181854 
	C351.621582,325.040771 348.776855,327.302094 347.875153,331.355347 
	C346.956665,335.484039 349.219055,338.141815 355.328278,339.350739 
z"/>
<path fill="#CF82C3" opacity="1.000000" stroke="none" 
	d="
M350.291809,390.856934 
	C347.147308,384.737244 344.266083,378.669373 341.258453,372.276733 
	C341.132080,371.951965 341.258148,371.687225 341.244324,371.540619 
	C344.494476,377.605225 347.758453,383.816467 351.046082,390.392273 
	C350.898163,390.807526 350.726593,390.858185 350.291809,390.856934 
z"/>
<path fill="#CF82C3" opacity="1.000000" stroke="none" 
	d="
M334.602844,375.438354 
	C337.277924,380.368988 339.685333,385.318329 341.826324,390.943909 
	C341.093048,391.388397 340.626160,391.156647 340.159302,390.924866 
	C339.654938,389.987610 339.150574,389.050385 338.346436,387.970703 
	C337.099701,385.458130 336.018738,383.130310 335.251831,380.703217 
	C334.721710,379.025452 334.625305,377.210632 334.602844,375.438354 
z"/>
<path fill="#392163" opacity="1.000000" stroke="none" 
	d="
M339.968628,391.122467 
	C340.626160,391.156647 341.093048,391.388397 341.802856,391.311218 
	C342.045837,391.002258 342.012115,390.989655 341.703430,391.258057 
	C341.648224,392.298767 341.901703,393.071075 342.155182,393.843353 
	C342.155182,393.843353 342.096802,393.901123 342.067200,393.928986 
	C341.284363,393.077911 340.531158,392.199005 339.968628,391.122467 
z"/>
<path fill="#392163" opacity="1.000000" stroke="none" 
	d="
M350.012848,367.170166 
	C350.182953,366.884216 350.353058,366.598297 350.744202,366.190460 
	C351.322815,367.141724 351.680389,368.214905 351.988281,369.669739 
	C351.938629,370.051422 351.839050,370.128082 351.619141,369.932373 
	C350.937103,368.881195 350.474976,368.025665 350.012848,367.170166 
z"/>
<path fill="#392163" opacity="1.000000" stroke="none" 
	d="
M351.989380,370.014404 
	C352.360870,370.436310 352.681580,370.895264 353.037659,371.641968 
	C353.073059,371.929718 352.989197,372.010010 352.721344,371.984253 
	C352.453491,371.958466 351.982819,371.962708 351.982819,371.962708 
	C351.982819,371.962708 352.010498,371.997559 352.023926,371.694305 
	C351.971283,370.970062 351.905151,370.549072 351.839050,370.128082 
	C351.839050,370.128082 351.938629,370.051422 351.989380,370.014404 
z"/>
<path fill="#110F52" opacity="1.000000" stroke="none" 
	d="
M387.056152,224.528534 
	C387.052246,241.018463 387.002625,257.041931 386.971100,273.533997 
	C386.311371,274.877686 385.633484,275.752747 384.764099,275.908569 
	C384.446655,273.475647 384.320740,271.761932 384.318909,269.713501 
	C384.361481,268.917725 384.279877,268.456635 384.341675,267.557709 
	C384.381226,263.749451 384.277374,260.379028 384.307678,256.558929 
	C384.351044,244.073502 384.260223,232.037704 384.266846,219.750183 
	C384.298920,219.330811 384.233459,219.163177 384.294403,218.753128 
	C384.329376,217.988876 384.237946,217.467026 384.262512,216.492554 
	C384.393890,189.728760 384.388306,163.417587 384.431702,137.106476 
	C384.462708,118.292656 384.559448,99.478951 384.694824,80.590355 
	C384.718109,80.272972 384.578064,80.167862 384.162964,80.017624 
	C383.932129,79.672150 383.880981,79.509232 383.575378,79.023026 
	C381.204529,78.473015 379.088257,78.049507 376.971710,78.048286 
	C318.867462,78.014664 260.763153,78.037010 202.658920,77.976677 
	C200.446930,77.974380 198.235703,77.242599 196.024109,76.850754 
	C230.351395,76.888824 264.678680,76.937653 299.005981,76.961548 
	C326.502167,76.980690 353.999115,77.070099 381.493835,76.871513 
	C386.005432,76.838936 387.062531,78.285172 387.051300,82.582565 
	C386.928131,129.742111 386.995087,176.902145 387.056152,224.528534 
z"/>
<path fill="#230A3B" opacity="1.000000" stroke="none" 
	d="
M196.032928,76.470947 
	C198.235703,77.242599 200.446930,77.974380 202.658920,77.976677 
	C260.763153,78.037010 318.867462,78.014664 376.971710,78.048286 
	C379.088257,78.049507 381.204529,78.473015 383.119202,79.010132 
	C323.603516,79.315735 264.289520,79.311943 204.975510,79.305092 
	C195.380905,79.303986 195.380905,79.297707 193.794250,89.112686 
	C192.967529,94.352020 192.685455,99.392677 191.760544,104.312485 
	C190.567169,110.660263 188.859497,116.911369 187.281906,122.891739 
	C186.671906,121.707565 186.153305,120.835754 185.485519,119.618423 
	C185.312592,118.526054 185.288849,117.779221 185.265106,117.032379 
	C185.492630,114.319595 185.720139,111.606819 186.251144,108.512718 
	C187.265442,108.383385 187.976242,108.635361 188.995117,108.996552 
	C188.995117,107.136246 188.995117,105.553268 188.995117,103.970291 
	C190.650055,93.947716 192.304977,83.925148 194.349319,73.460983 
	C195.204056,73.025665 195.669373,73.031937 196.134705,73.038216 
	C196.103714,74.055855 196.072723,75.073502 196.032928,76.470947 
z"/>
<path fill="#E5EDFE" opacity="1.000000" stroke="none" 
	d="
M303.121277,69.969620 
	C302.128967,70.354927 301.139404,71.066643 300.143921,71.075058 
	C290.189362,71.159142 280.232666,71.199989 270.279877,71.043633 
	C268.917969,71.022240 267.574097,69.855827 266.221863,69.219559 
	C267.593109,68.444778 268.959595,67.009758 270.336304,66.999916 
	C281.105530,66.922928 291.876770,67.119476 302.379425,67.612427 
	C290.942688,67.993248 279.773926,67.993248 268.605133,67.993248 
	C268.614929,68.652039 268.624725,69.310829 268.634491,69.969620 
	C280.130096,69.969620 291.625671,69.969620 303.121277,69.969620 
z"/>
<path fill="#AFACC1" opacity="1.000000" stroke="none" 
	d="
M303.376740,69.858887 
	C291.625671,69.969620 280.130096,69.969620 268.634491,69.969620 
	C268.624725,69.310829 268.614929,68.652039 268.605133,67.993248 
	C279.773926,67.993248 290.942688,67.993248 302.584106,68.003937 
	C303.248596,68.592461 303.440399,69.170303 303.376740,69.858887 
z"/>
<path fill="#110F52" opacity="1.000000" stroke="none" 
	d="
M196.326523,72.760017 
	C195.669373,73.031937 195.204056,73.025665 194.393524,73.060524 
	C193.862061,73.037956 193.675797,72.974258 193.209183,72.817238 
	C191.852615,72.464355 190.776413,72.204803 189.350159,71.751656 
	C189.000092,71.558052 188.992493,71.176796 188.992493,71.176796 
	C190.708374,70.792870 192.436813,70.093353 194.134750,70.160866 
	C194.958740,70.193626 195.725601,71.662888 196.326523,72.760017 
z"/>
<path fill="#0E144E" opacity="1.000000" stroke="none" 
	d="
M188.697784,71.168808 
	C188.992493,71.176796 189.000092,71.558052 189.004990,71.748001 
	C188.526703,71.946579 188.043503,71.955208 187.197174,71.934151 
	C187.357040,71.656578 187.880051,71.408699 188.697784,71.168808 
z"/>
<path fill="#0E144E" opacity="1.000000" stroke="none" 
	d="
M173.388809,90.117432 
	C173.874786,89.932259 174.728699,89.774513 175.774963,89.850388 
	C175.230469,90.104286 174.493607,90.124565 173.388809,90.117432 
z"/>
<path fill="#26212F" opacity="1.000000" stroke="none" 
	d="
M188.591095,104.102188 
	C188.995117,105.553268 188.995117,107.136246 188.995117,108.996552 
	C187.976242,108.635361 187.265442,108.383385 186.256805,108.081528 
	C185.314056,103.457367 184.511703,98.898544 184.060074,94.305244 
	C183.332291,86.903481 183.429993,86.893875 175.794495,87.869095 
	C178.231506,86.894829 181.121109,85.970200 184.599045,84.857307 
	C185.133423,90.407288 185.452576,95.155205 186.121994,99.853226 
	C186.339630,101.380585 187.472702,102.777496 188.591095,104.102188 
z"/>
<path fill="#F490C9" opacity="1.000000" stroke="none" 
	d="
M185.155548,116.617004 
	C185.288849,117.779221 185.312592,118.526054 185.400757,119.970383 
	C185.956787,121.725693 186.448395,122.783516 186.560333,124.112793 
	C186.055496,125.928925 185.930344,127.473595 185.600266,129.372574 
	C185.281586,130.377945 185.068542,131.028976 185.068237,131.680084 
	C185.047119,176.240555 185.021866,220.801086 185.126541,265.361298 
	C185.130173,266.904114 186.446365,268.443817 187.084198,269.990845 
	C187.017624,269.996735 187.007446,269.863464 187.143723,270.091034 
	C187.554794,270.535797 187.829605,270.753021 188.560257,270.989929 
	C194.584351,270.676270 200.155518,270.026550 205.720215,270.077789 
	C216.107330,270.173370 226.491806,270.983002 236.875443,270.946503 
	C259.565247,270.866791 282.253845,270.443359 305.286713,270.399933 
	C312.097382,270.799805 318.564270,270.960052 324.965088,271.464539 
	C324.933075,274.045349 324.967102,276.281982 325.001099,278.518585 
	C319.000153,278.603577 312.999237,278.688568 306.354584,278.373169 
	C300.447083,278.194794 295.183319,278.416718 289.919525,278.638641 
	C284.277618,278.685486 278.635681,278.732330 272.351257,278.378998 
	C266.779297,278.198730 261.849884,278.418640 256.920471,278.638580 
	C231.945801,278.688354 206.971146,278.738129 181.450836,278.406799 
	C180.256805,274.518951 179.050659,271.013397 179.043320,267.505310 
	C178.924469,210.741165 178.957748,153.976669 178.957504,97.212265 
	C178.957504,96.213516 178.610199,95.003738 179.048264,94.259178 
	C180.012726,92.619995 181.376358,91.215683 182.577087,89.715515 
	C182.677338,90.292709 182.777588,90.869896 182.651215,92.041946 
	C182.686447,94.429543 182.948303,96.222298 183.210175,98.015045 
	C183.822113,104.077240 184.434067,110.139442 185.155548,116.617004 
z"/>
<path fill="#CF82C3" opacity="1.000000" stroke="none" 
	d="
M182.489471,89.372704 
	C181.376358,91.215683 180.012726,92.619995 179.048264,94.259178 
	C178.610199,95.003738 178.957504,96.213516 178.957504,97.212265 
	C178.957748,153.976669 178.924469,210.741165 179.043320,267.505310 
	C179.050659,271.013397 180.256805,274.518951 180.991898,278.338745 
	C180.351440,278.725159 179.624268,278.798523 178.530701,278.863739 
	C178.090469,275.027039 177.953903,271.198547 177.952179,267.369965 
	C177.926514,210.217728 177.918671,153.065491 177.836029,95.449066 
	C178.409286,92.297890 176.217606,87.403236 182.489471,89.372704 
z"/>
<path fill="#CF82C3" opacity="1.000000" stroke="none" 
	d="
M183.283615,97.588554 
	C182.948303,96.222298 182.686447,94.429543 182.617020,92.334854 
	C182.991989,93.742622 183.174530,95.452347 183.283615,97.588554 
z"/>
<path fill="#2A5096" opacity="1.000000" stroke="none" 
	d="
M355.940216,323.295898 
	C355.203186,323.740173 354.488556,323.781860 353.338226,323.485657 
	C351.903809,322.094543 350.905029,321.041351 349.890320,319.616852 
	C349.256592,314.720093 346.949280,311.040527 342.442169,310.446625 
	C339.718140,310.087646 335.828125,311.138977 334.042969,313.040710 
	C331.972687,315.246185 331.635040,319.078094 330.324432,322.837463 
	C328.586975,322.915619 325.815918,323.040253 323.044891,323.164917 
	C323.523468,317.981232 326.220184,314.340515 330.702393,311.813049 
	C332.200134,310.968506 333.469147,309.718323 334.615967,308.829346 
	C331.969788,301.441589 328.919067,295.407013 319.571594,298.688904 
	C322.843018,295.431030 326.149384,292.149628 329.920898,289.540680 
	C334.420258,286.428314 339.318176,283.892029 344.043427,281.106201 
	C344.043427,281.106201 344.014465,280.972107 344.470978,280.967712 
	C355.612305,280.998993 366.297150,281.034637 376.981964,281.070312 
	C374.118347,285.423340 371.251434,289.774231 368.391876,294.129883 
	C362.572998,302.993164 356.300568,311.661346 355.940216,323.295898 
z"/>
<path fill="#0E144E" opacity="1.000000" stroke="none" 
	d="
M377.208923,280.932373 
	C366.297150,281.034637 355.612305,280.998993 344.463379,280.899536 
	C348.266632,280.550079 352.530914,280.095245 356.802063,280.017517 
	C363.625427,279.893402 370.453339,280.019806 377.773956,280.087036 
	C377.990997,280.354034 377.713409,280.574249 377.208923,280.932373 
z"/>
<path fill="#EE8BC7" opacity="1.000000" stroke="none" 
	d="
M384.194794,270.048187 
	C384.320740,271.761932 384.446655,273.475647 384.609985,275.642487 
	C384.257141,276.904236 383.866913,277.712891 383.269409,278.719788 
	C382.593079,278.861664 382.123993,278.805359 381.398560,278.322998 
	C382.159729,275.280640 383.177246,272.664429 384.194794,270.048187 
z"/>
<path fill="#1C4387" opacity="1.000000" stroke="none" 
	d="
M343.597076,281.044556 
	C339.318176,283.892029 334.420258,286.428314 329.920898,289.540680 
	C326.149384,292.149628 322.843018,295.431030 319.167358,298.707550 
	C313.283875,303.637726 311.523438,310.422119 308.922607,316.875000 
	C304.728760,327.280212 298.973541,336.317505 286.502716,338.385620 
	C276.654480,340.018829 269.189575,335.871368 263.563965,328.558533 
	C260.316010,324.336456 258.093445,319.164581 256.143707,314.135498 
	C250.637955,299.934265 240.234924,290.874146 226.698410,284.859863 
	C225.792084,284.457184 224.895859,284.030823 224.006256,283.592499 
	C223.885895,283.533173 223.832077,283.338867 223.501801,282.824524 
	C224.505295,282.381348 225.453506,281.962585 226.638306,281.343201 
	C257.628510,281.097992 288.382111,281.054657 319.135712,281.006470 
	C321.462738,281.002808 323.789703,280.964386 326.588684,280.880280 
	C327.802368,280.842834 328.544037,280.867218 330.078644,280.920807 
	C332.570709,280.910919 334.269897,280.871796 335.969055,280.832703 
	C338.362946,280.882782 340.756836,280.932831 343.597076,281.044556 
M258.569885,292.538300 
	C273.175903,292.655975 287.781860,292.784149 302.388123,292.852661 
	C302.965179,292.855377 303.544922,292.289612 304.575745,291.421082 
	C305.628082,287.776367 303.461212,287.062744 300.571014,287.057129 
	C292.953918,287.042358 285.336823,287.045013 277.719727,287.044830 
	C271.924103,287.044708 266.124664,286.940308 260.335938,287.141663 
	C259.084351,287.185181 257.684082,288.152802 256.752045,289.091614 
	C256.463104,289.382660 257.494141,290.984161 258.569885,292.538300 
M272.335419,320.992920 
	C277.050201,327.466858 284.328247,328.886505 290.614227,324.558411 
	C295.665131,321.080719 297.343811,312.565552 293.953094,307.621735 
	C289.572693,301.234863 281.808868,299.418457 275.659790,303.341888 
	C270.051788,306.920074 268.371002,314.454834 272.335419,320.992920 
z"/>
<path fill="#1C4387" opacity="1.000000" stroke="none" 
	d="
M249.177063,387.724365 
	C251.322083,384.886993 253.068710,381.224884 255.829239,380.138092 
	C268.729492,375.059235 282.276215,373.743286 295.981201,375.848877 
	C302.491486,376.849121 309.023254,378.302551 315.214386,380.488007 
	C317.609283,381.333435 320.332611,384.642670 320.585083,387.070801 
	C320.781097,388.955658 317.782135,392.038055 315.499451,393.175568 
	C300.196777,400.800812 283.995605,399.943970 267.734558,397.387054 
	C260.624573,396.269073 253.594482,394.787598 249.177063,387.724365 
z"/>
<path fill="#2A0F53" opacity="1.000000" stroke="none" 
	d="
M322.809937,323.395447 
	C325.815918,323.040253 328.586975,322.915619 330.324432,322.837463 
	C331.635040,319.078094 331.972687,315.246185 334.042969,313.040710 
	C335.828125,311.138977 339.718140,310.087646 342.442169,310.446625 
	C346.949280,311.040527 349.256592,314.720093 349.670837,319.886780 
	C348.973907,322.358856 348.480530,324.189636 347.987183,326.020447 
	C347.987183,326.020447 348.001770,326.001404 347.620178,325.980408 
	C343.361298,326.774933 339.483978,327.590515 335.327271,328.464844 
	C336.609802,332.880920 335.058777,336.889709 330.931885,339.930145 
	C324.879181,341.884460 321.018494,340.702820 318.737152,336.197754 
	C316.210541,331.208282 317.259155,327.773315 322.809937,323.395447 
M346.917999,320.129639 
	C346.757080,314.848877 344.445374,312.123444 340.259949,312.280060 
	C336.579498,312.417786 333.006195,315.914825 333.912201,319.527802 
	C334.493042,321.844116 336.632935,324.626190 338.771362,325.507782 
	C342.621857,327.095184 345.222931,324.427856 346.917999,320.129639 
M331.414581,326.919983 
	C329.543274,326.609253 327.296692,325.504364 325.886963,326.170471 
	C323.671906,327.217133 320.941895,329.203308 320.455658,331.268585 
	C320.029327,333.079437 321.900635,336.215454 323.674072,337.508575 
	C325.059967,338.519196 328.280060,338.346283 329.932770,337.393768 
	C333.891693,335.112122 334.012054,331.386475 331.414581,326.919983 
z"/>
<path fill="#274583" opacity="1.000000" stroke="none" 
	d="
M331.215820,340.096069 
	C335.058777,336.889709 336.609802,332.880920 335.327271,328.464844 
	C339.483978,327.590515 343.361298,326.774933 347.629822,325.973267 
	C345.282349,330.389587 344.998077,334.807098 347.598999,339.574524 
	C341.070007,336.860352 338.921417,337.212341 333.210144,342.205994 
	C332.640015,341.557983 332.069855,340.909973 331.215820,340.096069 
z"/>
<path fill="#2A0F53" opacity="1.000000" stroke="none" 
	d="
M333.141663,342.580933 
	C338.921417,337.212341 341.070007,336.860352 347.633850,339.957336 
	C348.008972,340.010132 347.998108,339.998627 348.086487,340.229004 
	C348.451813,340.641602 348.728729,340.823792 349.005646,341.005981 
	C349.005646,341.005981 349.000000,341.000000 349.003662,341.284302 
	C349.289856,342.047852 349.572357,342.527069 349.854858,343.006287 
	C351.524872,347.555206 351.013672,352.103394 346.658936,354.243561 
	C343.854614,355.621643 339.386810,355.795593 336.585938,354.506805 
	C331.977661,352.386383 331.245636,347.742249 333.141663,342.580933 
M346.657745,350.951538 
	C348.761444,346.431488 348.148499,342.820404 344.806366,341.108307 
	C341.105133,339.212219 338.390106,340.539886 335.968536,343.728302 
	C333.869751,346.491760 334.135864,349.023071 336.177826,351.284393 
	C339.261475,354.699432 342.733582,354.612213 346.657745,350.951538 
z"/>
<path fill="#CF82C3" opacity="1.000000" stroke="none" 
	d="
M338.554474,373.344727 
	C341.684723,379.388855 344.559570,385.395142 347.434418,391.401398 
	C347.011719,391.616577 346.589020,391.831726 346.166321,392.046875 
	C343.225922,386.007172 340.285522,379.967468 337.305420,373.599823 
	C337.610168,373.283539 337.954620,373.295227 338.554474,373.344727 
z"/>
<path fill="#CF82C3" opacity="1.000000" stroke="none" 
	d="
M351.619141,369.932373 
	C351.905151,370.549072 351.971283,370.970062 352.038879,371.710815 
	C351.068237,370.629120 350.096161,369.227631 349.167328,367.480804 
	C349.210602,367.135468 349.610687,367.154144 349.811768,367.162170 
	C350.474976,368.025665 350.937103,368.881195 351.619141,369.932373 
z"/>
<path fill="#274583" opacity="1.000000" stroke="none" 
	d="
M350.187683,342.950104 
	C349.572357,342.527069 349.289856,342.047852 349.001099,341.281982 
	C349.838196,341.100861 350.681580,341.206360 351.789642,341.493652 
	C351.543091,342.081635 351.031799,342.487793 350.187683,342.950104 
z"/>
<path fill="#1C4287" opacity="1.000000" stroke="none" 
	d="
M209.237030,342.904236 
	C210.076263,342.716888 211.353867,342.578247 212.908524,342.631592 
	C212.015533,342.866699 210.845459,342.909821 209.237030,342.904236 
z"/>
<path fill="#EFC519" opacity="1.000000" stroke="none" 
	d="
M215.016693,327.465027 
	C215.467987,324.126526 216.319962,320.782532 216.274643,317.450806 
	C216.210129,312.708649 218.082535,311.001099 222.805435,310.961426 
	C227.557831,310.921600 229.580170,312.606537 229.254761,317.374939 
	C229.043488,320.470795 229.214981,323.592743 229.214981,327.260498 
	C233.348541,327.260498 236.812134,327.362335 240.267258,327.234924 
	C244.651123,327.073212 245.612854,329.641266 245.519104,333.305328 
	C245.431030,336.746552 245.632202,340.154999 240.568741,340.148285 
	C236.983276,340.143524 232.309891,339.407715 230.144836,341.305634 
	C228.312744,342.911652 229.230881,347.828552 229.208160,351.282013 
	C229.178375,355.805481 226.615250,356.802795 222.703033,356.774902 
	C218.776443,356.746918 216.379089,355.684937 216.274338,351.164093 
	C216.194870,347.734650 215.373428,344.322418 214.288300,340.451233 
	C211.663956,339.660461 209.644577,339.201782 207.600189,339.011597 
	C205.037811,338.773132 201.250961,339.286621 201.757294,335.717346 
	C202.142166,333.004303 202.509842,328.529510 207.770950,328.898499 
	C210.141037,329.064697 212.598740,327.981384 215.016693,327.465027 
z"/>
<path fill="#ECC222" opacity="1.000000" stroke="none" 
	d="
M214.564270,327.373779 
	C212.598740,327.981384 210.141037,329.064697 207.770950,328.898499 
	C202.509842,328.529510 202.142166,333.004303 201.757294,335.717346 
	C201.250961,339.286621 205.037811,338.773132 207.600189,339.011597 
	C209.644577,339.201782 211.663956,339.660461 213.853760,340.341553 
	C211.544586,340.743530 209.076141,340.852570 206.607620,340.854248 
	C201.161713,340.858032 199.103653,339.041809 199.066391,334.289948 
	C199.024841,328.989899 200.800659,327.339172 206.696289,327.264374 
	C209.167664,327.233002 211.639954,327.274292 214.564270,327.373779 
z"/>
<path fill="#D32D98" opacity="1.000000" stroke="none" 
	d="
M234.134872,398.820709 
	C230.390930,395.642334 226.998383,392.498627 223.455978,389.216034 
	C219.409973,392.696075 215.468735,396.085999 211.527512,399.475922 
	C210.967957,398.871185 210.408401,398.266449 209.848862,397.661682 
	C211.478882,395.824707 213.038757,393.918793 214.757935,392.169403 
	C216.613052,390.281769 218.617126,388.540527 220.808746,386.500336 
	C217.497314,382.856812 214.230469,379.262360 210.963638,375.667908 
	C211.362381,375.147003 211.761139,374.626099 212.159882,374.105194 
	C213.959412,375.398926 215.928894,376.515106 217.514313,378.032562 
	C219.389130,379.826965 220.932358,381.967865 222.676559,384.026123 
	C226.348404,381.081787 229.636139,378.445465 232.923889,375.809143 
	C233.354218,376.183350 233.784561,376.557556 234.214890,376.931763 
	C231.704590,380.016388 229.194305,383.100983 226.316116,386.637665 
	C228.884171,389.286377 231.663086,391.862091 234.033005,394.770996 
	C234.759949,395.663269 234.366592,397.468292 234.134872,398.820709 
z"/>
<path fill="#FA87C5" opacity="1.000000" stroke="none" 
	d="
M384.318909,269.713501 
	C383.177246,272.664429 382.159729,275.280640 381.054993,278.234802 
	C362.618408,278.617889 344.268982,278.663055 325.460327,278.613403 
	C324.967102,276.281982 324.933075,274.045349 325.429962,271.437195 
	C340.070435,271.053131 354.180145,271.073303 368.289307,270.990082 
	C370.222321,270.978668 372.152344,270.452576 374.259766,270.093262 
	C374.435822,270.021729 374.815399,270.004211 375.130371,269.978729 
	C375.972504,269.639648 376.499664,269.326050 377.332062,268.933807 
	C377.444092,267.896576 377.250885,266.938019 377.046387,265.512207 
	C377.337189,246.688217 377.639313,228.331436 378.274933,210.060913 
	C380.454468,212.413193 382.300507,214.679184 384.146515,216.945175 
	C384.237946,217.467026 384.329376,217.988876 384.155212,218.794739 
	C383.784821,219.189896 383.578003,219.384232 383.590607,219.399689 
	C383.765961,219.614761 383.971313,219.805344 384.169373,220.001923 
	C384.260223,232.037704 384.351044,244.073502 384.037476,256.779999 
	C383.821503,260.965637 384.009888,264.480591 384.198303,267.995514 
	C384.279877,268.456635 384.361481,268.917725 384.318909,269.713501 
z"/>
<path fill="#CF82C3" opacity="1.000000" stroke="none" 
	d="
M290.383057,278.740906 
	C295.183319,278.416718 300.447083,278.194794 305.896271,278.304443 
	C301.003296,278.705139 295.924957,278.774170 290.383057,278.740906 
z"/>
<path fill="#CF82C3" opacity="1.000000" stroke="none" 
	d="
M257.383270,278.741058 
	C261.849884,278.418640 266.779297,278.198730 271.893097,278.310181 
	C267.333679,278.708893 262.589874,278.776215 257.383270,278.741058 
z"/>
<path fill="#0E144E" opacity="1.000000" stroke="none" 
	d="
M335.685913,280.627502 
	C334.269897,280.871796 332.570709,280.910919 330.450134,280.897491 
	C331.820038,280.704102 333.611420,280.563232 335.685913,280.627502 
z"/>
<path fill="#CF82C3" opacity="1.000000" stroke="none" 
	d="
M345.098022,369.145142 
	C346.797882,371.809570 348.471405,374.413849 350.014893,377.554260 
	C349.743256,378.216797 349.601593,378.343201 349.459930,378.469604 
	C348.011963,375.590515 346.563965,372.711426 345.152954,369.487244 
	C345.189972,369.142120 345.071625,369.084991 345.098022,369.145142 
z"/>
<path fill="#CF82C3" opacity="1.000000" stroke="none" 
	d="
M353.413727,386.577087 
	C352.531189,384.803406 351.648682,383.029694 350.766144,381.256012 
	C351.138062,381.078125 351.509979,380.900208 351.881897,380.722321 
	C352.619049,382.177124 353.356171,383.631927 353.950867,385.631531 
	C353.676880,386.309906 353.545288,386.443481 353.413727,386.577087 
z"/>
<path fill="#CF82C3" opacity="1.000000" stroke="none" 
	d="
M351.698578,372.263916 
	C351.982819,371.962708 352.453491,371.958466 352.679443,372.024384 
	C353.265778,373.277008 353.626221,374.463745 353.986633,375.650452 
	C353.691742,375.792511 353.396820,375.934540 353.101929,376.076599 
	C352.539398,374.906097 351.976868,373.735626 351.698578,372.263916 
z"/>
<path fill="#CF82C3" opacity="1.000000" stroke="none" 
	d="
M357.182556,383.415924 
	C357.858154,383.893707 358.374298,384.699127 358.890472,385.504547 
	C358.578644,385.666229 358.266846,385.827911 357.955048,385.989594 
	C357.644409,385.240906 357.333740,384.492249 357.182556,383.415924 
z"/>
<path fill="#CF82C3" opacity="1.000000" stroke="none" 
	d="
M354.016876,385.987549 
	C354.361176,386.432953 354.497070,387.067169 354.632935,387.701416 
	C354.320557,387.494049 354.008179,387.286682 353.554749,386.828217 
	C353.545288,386.443481 353.676880,386.309906 354.016876,385.987549 
z"/>
<path fill="#CF82C3" opacity="1.000000" stroke="none" 
	d="
M350.099243,377.902832 
	C350.507385,378.372559 350.701233,379.029846 350.895081,379.687103 
	C350.508423,379.481628 350.121796,379.276154 349.597534,378.770142 
	C349.601593,378.343201 349.743256,378.216797 350.099243,377.902832 
z"/>
<path fill="#CF82C3" opacity="1.000000" stroke="none" 
	d="
M354.682556,379.314758 
	C354.501862,378.629486 354.321167,377.944214 354.140442,377.258942 
	C354.561279,377.473999 354.982117,377.689056 355.279968,378.406738 
	C354.998871,379.044495 354.840729,379.179626 354.682556,379.314758 
z"/>
<path fill="#CF82C3" opacity="1.000000" stroke="none" 
	d="
M355.411804,378.729187 
	C355.446899,379.012207 355.227173,379.475433 354.845032,379.626709 
	C354.840729,379.179626 354.998871,379.044495 355.411804,378.729187 
z"/>
<path fill="#CF82C3" opacity="1.000000" stroke="none" 
	d="
M356.268005,381.716797 
	C356.273163,381.423492 356.483429,381.353882 356.693665,381.284271 
	C356.620148,381.503021 356.546600,381.721802 356.268005,381.716797 
z"/>
<path fill="#CF82C3" opacity="1.000000" stroke="none" 
	d="
M342.443054,393.875366 
	C341.901703,393.071075 341.648224,392.298767 341.692322,391.243896 
	C342.236877,391.943298 342.483917,392.925323 342.443054,393.875366 
z"/>
<path fill="#EE8BC7" opacity="1.000000" stroke="none" 
	d="
M354.911865,339.366760 
	C349.219055,338.141815 346.956665,335.484039 347.875153,331.355347 
	C348.776855,327.302094 351.621582,325.040771 355.492188,326.181854 
	C357.667938,326.823242 360.213867,329.311981 360.831177,331.472015 
	C362.010590,335.598785 359.577728,338.391724 354.911865,339.366760 
z"/>
<path fill="#274583" opacity="1.000000" stroke="none" 
	d="
M348.303406,325.885132 
	C348.480530,324.189636 348.973907,322.358856 349.686768,320.258118 
	C350.905029,321.041351 351.903809,322.094543 352.979706,323.466003 
	C351.577789,324.439423 350.098724,325.094604 348.303406,325.885132 
z"/>
<path fill="#274583" opacity="1.000000" stroke="none" 
	d="
M348.926819,340.759644 
	C348.728729,340.823792 348.451813,340.641602 348.080994,340.223633 
	C348.274048,340.162994 348.561035,340.338165 348.926819,340.759644 
z"/>
<path fill="#EE8BC7" opacity="1.000000" stroke="none" 
	d="
M384.262512,216.492554 
	C382.300507,214.679184 380.454468,212.413193 378.116364,209.681000 
	C377.401917,203.808289 377.179565,198.401749 376.965210,192.556915 
	C376.678223,188.773773 376.383240,185.428940 376.207642,181.958130 
	C376.368439,181.724884 376.467651,181.598572 376.439850,181.514038 
	C376.370300,181.302521 376.243134,181.109955 376.149658,180.601013 
	C376.176147,179.881210 376.191986,179.470200 376.419708,178.701263 
	C376.750427,177.694580 376.972748,177.045898 376.973267,176.397049 
	C376.995453,148.851456 377.009186,121.305840 376.966583,93.760307 
	C376.964630,92.493523 376.435028,91.227547 376.077728,89.777641 
	C376.004272,89.594086 375.975464,89.199722 375.843872,88.946793 
	C375.406464,88.475487 375.100647,88.257111 374.896240,88.028236 
	C374.997650,88.017738 375.017029,88.220703 374.728821,87.905411 
	C372.982208,87.379494 371.523956,86.985558 370.065491,86.984718 
	C313.425781,86.952080 256.786072,86.944801 200.146408,87.004417 
	C198.439270,87.006210 196.732895,87.756691 194.960480,88.389084 
	C194.687607,88.957024 194.407059,89.037094 194.053131,88.860291 
	C195.380905,79.297707 195.380905,79.303986 204.975510,79.305092 
	C264.289520,79.311943 323.603516,79.315735 383.373657,79.333435 
	C383.880981,79.509232 383.932129,79.672150 384.179413,80.165192 
	C384.375519,80.495323 384.626862,80.665192 384.626862,80.665192 
	C384.559448,99.478951 384.462708,118.292656 384.431702,137.106476 
	C384.388306,163.417587 384.393890,189.728760 384.262512,216.492554 
z"/>
<path fill="#EE8BC7" opacity="1.000000" stroke="none" 
	d="
M384.341675,267.557709 
	C384.009888,264.480591 383.821503,260.965637 383.903320,257.229645 
	C384.277374,260.379028 384.381226,263.749451 384.341675,267.557709 
z"/>
<path fill="#EE8BC7" opacity="1.000000" stroke="none" 
	d="
M384.266846,219.750183 
	C383.971313,219.805344 383.765961,219.614761 383.590607,219.399689 
	C383.578003,219.384232 383.784821,219.189896 384.028809,219.037140 
	C384.233459,219.163177 384.298920,219.330811 384.266846,219.750183 
z"/>
<path fill="#274583" opacity="1.000000" stroke="none" 
	d="
M384.694824,80.590355 
	C384.626862,80.665192 384.375519,80.495323 384.359070,80.347755 
	C384.578064,80.167862 384.718109,80.272972 384.694824,80.590355 
z"/>
<path fill="#000000" opacity="1.000000" stroke="none" 
	d="
M193.794250,89.112686 
	C194.407059,89.037094 194.687607,88.957024 195.423050,88.333481 
	C252.651840,88.041611 309.352356,88.033440 366.052887,88.039154 
	C369.040924,88.039452 372.028992,88.157478 375.017029,88.220703 
	C375.017029,88.220703 374.997650,88.017738 375.000854,88.304504 
	C375.327881,88.794083 375.651672,88.996902 375.975464,89.199722 
	C375.975464,89.199722 376.004272,89.594086 376.006897,90.246712 
	C375.718903,120.261086 375.428314,149.622833 375.059448,179.449310 
	C375.041443,191.600311 375.101685,203.286575 375.088745,215.438049 
	C374.948822,233.936905 374.882111,251.970566 374.815399,270.004211 
	C374.815399,270.004211 374.435822,270.021729 373.786255,270.019165 
	C350.405426,270.064514 327.674164,270.112427 304.942932,270.160339 
	C282.253845,270.443359 259.565247,270.866791 236.875443,270.946503 
	C226.491806,270.983002 216.107330,270.173370 205.720215,270.077789 
	C200.155518,270.026550 194.584351,270.676270 188.477203,270.722992 
	C187.628021,270.245392 187.317734,270.054413 187.007446,269.863464 
	C187.007446,269.863464 187.017624,269.996735 187.018814,269.524597 
	C187.004578,226.770782 187.023285,184.489059 186.922791,142.207611 
	C186.912354,137.810303 186.194702,133.414673 185.805176,129.018265 
	C185.930344,127.473595 186.055496,125.928925 186.687103,124.060547 
	C187.296097,123.573677 187.356018,123.396103 187.373306,123.204102 
	C188.859497,116.911369 190.567169,110.660263 191.760544,104.312485 
	C192.685455,99.392677 192.967529,94.352020 193.794250,89.112686 
z"/>
<path fill="#2A0F53" opacity="1.000000" stroke="none" 
	d="
M187.281906,122.891739 
	C187.356018,123.396103 187.296097,123.573677 187.066772,123.789085 
	C186.448395,122.783516 185.956787,121.725693 185.549942,120.315903 
	C186.153305,120.835754 186.671906,121.707565 187.281906,122.891739 
z"/>
<path fill="#DCB6D6" opacity="1.000000" stroke="none" 
	d="
M185.600281,129.372574 
	C186.194702,133.414673 186.912354,137.810303 186.922791,142.207611 
	C187.023285,184.489059 187.004578,226.770782 187.085388,269.518707 
	C186.446365,268.443817 185.130173,266.904114 185.126541,265.361298 
	C185.021866,220.801086 185.047119,176.240555 185.068237,131.680084 
	C185.068542,131.028976 185.281586,130.377945 185.600281,129.372574 
z"/>
<path fill="#DCA7CC" opacity="1.000000" stroke="none" 
	d="
M305.286713,270.399963 
	C327.674164,270.112427 350.405426,270.064514 373.610199,270.090698 
	C372.152344,270.452576 370.222321,270.978668 368.289307,270.990082 
	C354.180145,271.073303 340.070435,271.053131 325.496033,271.092957 
	C318.564270,270.960052 312.097382,270.799805 305.286713,270.399963 
z"/>
<path fill="#DCB6D6" opacity="1.000000" stroke="none" 
	d="
M187.143723,270.091034 
	C187.317734,270.054413 187.628021,270.245392 188.021362,270.703278 
	C187.829605,270.753021 187.554794,270.535797 187.143723,270.091034 
z"/>
<path fill="#2A0F53" opacity="1.000000" stroke="none" 
	d="
M272.096222,320.691101 
	C268.371002,314.454834 270.051788,306.920074 275.659790,303.341888 
	C281.808868,299.418457 289.572693,301.234863 293.953094,307.621735 
	C297.343811,312.565552 295.665131,321.080719 290.614227,324.558411 
	C284.328247,328.886505 277.050201,327.466858 272.096222,320.691101 
M278.200653,305.480347 
	C273.231659,309.715485 271.789673,313.759003 273.772552,317.897278 
	C275.673981,321.865570 280.363647,324.357544 284.420135,323.555145 
	C289.770477,322.496796 293.313751,317.336151 292.229004,312.181793 
	C290.903717,305.884369 286.374237,303.500977 278.200653,305.480347 
z"/>
<path fill="#392163" opacity="1.000000" stroke="none" 
	d="
M257.920868,291.985687 
	C257.494141,290.984161 256.463104,289.382660 256.752045,289.091614 
	C257.684082,288.152802 259.084351,287.185181 260.335938,287.141663 
	C266.124664,286.940308 271.924103,287.044708 277.719727,287.044830 
	C285.336823,287.045013 292.953918,287.042358 300.571014,287.057129 
	C303.461212,287.062744 305.628082,287.776367 304.220276,291.529602 
	C303.864838,291.638092 303.652557,291.257599 303.711609,290.896301 
	C302.915466,289.980652 302.063751,288.949493 301.204559,288.943237 
	C287.712952,288.844604 274.219940,288.833984 260.729309,288.988068 
	C259.900726,288.997559 259.089722,290.547638 258.198914,291.541260 
	C258.127319,291.701599 257.920868,291.985687 257.920868,291.985687 
z"/>
<path fill="#110F52" opacity="1.000000" stroke="none" 
	d="
M303.994141,291.813416 
	C303.544922,292.289612 302.965179,292.855377 302.388123,292.852661 
	C287.781860,292.784149 273.175903,292.655975 258.245361,292.261993 
	C257.920868,291.985687 258.127319,291.701599 258.643707,291.622498 
	C273.990906,291.448151 288.821747,291.352875 303.652557,291.257599 
	C303.652557,291.257599 303.864838,291.638092 303.994141,291.813416 
z"/>
<path fill="#D32D98" opacity="1.000000" stroke="none" 
	d="
M346.850159,320.517883 
	C345.222931,324.427856 342.621857,327.095184 338.771362,325.507782 
	C336.632935,324.626190 334.493042,321.844116 333.912201,319.527802 
	C333.006195,315.914825 336.579498,312.417786 340.259949,312.280060 
	C344.445374,312.123444 346.757080,314.848877 346.850159,320.517883 
z"/>
<path fill="#EE8BC7" opacity="1.000000" stroke="none" 
	d="
M331.712708,327.217102 
	C334.012054,331.386475 333.891693,335.112122 329.932770,337.393768 
	C328.280060,338.346283 325.059967,338.519196 323.674072,337.508575 
	C321.900635,336.215454 320.029327,333.079437 320.455658,331.268585 
	C320.941895,329.203308 323.671906,327.217133 325.886963,326.170471 
	C327.296692,325.504364 329.543274,326.609253 331.712708,327.217102 
z"/>
<path fill="#D32D98" opacity="1.000000" stroke="none" 
	d="
M346.392212,351.235931 
	C342.733582,354.612213 339.261475,354.699432 336.177826,351.284393 
	C334.135864,349.023071 333.869751,346.491760 335.968536,343.728302 
	C338.390106,340.539886 341.105133,339.212219 344.806366,341.108307 
	C348.148499,342.820404 348.761444,346.431488 346.392212,351.235931 
z"/>
<path fill="#DCA7CC" opacity="1.000000" stroke="none" 
	d="
M375.130371,269.978729 
	C374.882111,251.970566 374.948822,233.936905 375.311218,215.093414 
	C375.738037,211.849777 375.847168,209.414566 376.005066,206.982529 
	C376.307800,202.319138 376.638245,197.657562 376.957184,192.995224 
	C377.179565,198.401749 377.401917,203.808289 377.782867,209.594727 
	C377.639313,228.331436 377.337189,246.688217 377.026062,265.891205 
	C377.020355,267.495758 377.023590,268.254089 377.026855,269.012451 
	C376.499664,269.326050 375.972504,269.639648 375.130371,269.978729 
z"/>
<path fill="#EE8BC7" opacity="1.000000" stroke="none" 
	d="
M377.332062,268.933807 
	C377.023590,268.254089 377.020355,267.495758 377.037384,266.358398 
	C377.250885,266.938019 377.444092,267.896576 377.332062,268.933807 
z"/>
<path fill="#DCB6D6" opacity="1.000000" stroke="none" 
	d="
M374.728821,87.905403 
	C372.028992,88.157478 369.040924,88.039452 366.052887,88.039154 
	C309.352356,88.033440 252.651840,88.041611 195.488739,88.102493 
	C196.732895,87.756691 198.439270,87.006210 200.146408,87.004417 
	C256.786072,86.944801 313.425781,86.952080 370.065491,86.984718 
	C371.523956,86.985558 372.982208,87.379494 374.728821,87.905403 
z"/>
<path fill="#DCA7CC" opacity="1.000000" stroke="none" 
	d="
M375.137756,178.984573 
	C375.428314,149.622833 375.718903,120.261086 376.080322,90.430267 
	C376.435028,91.227547 376.964630,92.493523 376.966583,93.760307 
	C377.009186,121.305840 376.995453,148.851456 376.973267,176.397049 
	C376.972748,177.045898 376.750427,177.694580 376.151489,178.676178 
	C375.493561,179.000870 375.315674,178.992722 375.137756,178.984573 
z"/>
<path fill="#DCB6D6" opacity="1.000000" stroke="none" 
	d="
M375.059448,179.449310 
	C375.315674,178.992722 375.493561,179.000870 375.939636,179.034103 
	C376.191986,179.470200 376.176147,179.881210 376.119934,180.894135 
	C376.082520,181.692062 376.085388,181.888077 376.088257,182.084106 
	C376.383240,185.428940 376.678223,188.773773 376.965210,192.556915 
	C376.638245,197.657562 376.307800,202.319138 376.005066,206.982529 
	C375.847168,209.414566 375.738037,211.849777 375.384399,214.628189 
	C375.101685,203.286575 375.041443,191.600311 375.059448,179.449310 
z"/>
<path fill="#DCB6D6" opacity="1.000000" stroke="none" 
	d="
M375.843872,88.946793 
	C375.651672,88.996902 375.327881,88.794083 374.899475,88.315002 
	C375.100647,88.257111 375.406464,88.475487 375.843872,88.946793 
z"/>
<path fill="#DCA7CC" opacity="1.000000" stroke="none" 
	d="
M376.207672,181.958130 
	C376.085388,181.888077 376.082520,181.692062 376.109344,181.202911 
	C376.243134,181.109955 376.370300,181.302521 376.439850,181.514038 
	C376.467651,181.598572 376.368439,181.724884 376.207672,181.958130 
z"/>
<path fill="#D32D98" opacity="1.000000" stroke="none" 
	d="
M278.539886,305.318726 
	C286.374237,303.500977 290.903717,305.884369 292.229004,312.181793 
	C293.313751,317.336151 289.770477,322.496796 284.420135,323.555145 
	C280.363647,324.357544 275.673981,321.865570 273.772552,317.897278 
	C271.789673,313.759003 273.231659,309.715485 278.539886,305.318726 
z"/>
<path fill="#817AD7" opacity="1.000000" stroke="none" 
	d="
M303.711609,290.896301 
	C288.821747,291.352875 273.990906,291.448151 258.715332,291.462158 
	C259.089722,290.547638 259.900726,288.997559 260.729309,288.988068 
	C274.219940,288.833984 287.712952,288.844604 301.204559,288.943237 
	C302.063751,288.949493 302.915466,289.980652 303.711609,290.896301 
z"/>
</svg>